<svg width="20" height="20" viewBox="0 0 20 20" fill="none" xmlns="http://www.w3.org/2000/svg">
<path d="M7 7.75C7 7.33579 7.33579 7 7.75 7H15.25C15.6642 7 16 7.33579 16 7.75V15.25C16 15.6642 15.6642 16 15.25 16H7.75C7.33579 16 7 15.6642 7 15.25V7.75Z" stroke="#666666"/>
<path d="M12.25 4.33333H4.75C4.51988 4.33333 4.33333 4.51988 4.33333 4.75V12.25C4.33333 12.4801 4.51988 12.6667 4.75 12.6667H5.5V13.5H4.75C4.05964 13.5 3.5 12.9404 3.5 12.25V4.75C3.5 4.05964 4.05964 3.5 4.75 3.5H12.25C12.9404 3.5 13.5 4.05964 13.5 4.75V5.5H12.6667V4.75C12.6667 4.51988 12.4801 4.33333 12.25 4.33333Z" fill="black"/>
<path d="M9.90614 8.84613C9.90614 8.65864 9.74502 8.5 9.5546 8.5H8.85153C8.64647 8.5 8.5 8.65864 8.5 8.84613V9.53838C8.5 9.74028 8.64647 9.8845 8.85153 9.8845V13.3458C8.85153 13.7928 9.21772 14.1534 9.67178 14.1534H10.3748C10.3748 14.3553 10.5213 14.4995 10.7264 14.4995H11.4294C11.6199 14.4995 11.781 14.3553 11.781 14.1534V13.4611C11.781 13.2736 11.6199 13.115 11.4294 13.115H10.7264C10.5213 13.115 10.3748 13.2736 10.3748 13.4611H9.67178C9.59854 13.4611 9.5546 13.4179 9.5546 13.3458V11.8459H10.3748C10.3748 12.0478 10.5213 12.192 10.7264 12.192H11.4294C11.6199 12.192 11.781 12.0478 11.781 11.8459V11.1536C11.781 10.9661 11.6199 10.8075 11.4294 10.8075H10.7264C10.5213 10.8075 10.3748 10.9661 10.3748 11.1536H9.5546V9.8845C9.74502 9.8845 9.90614 9.74028 9.90614 9.53838V8.84613Z" fill="black"/>
<path d="M11.9 8.9002C11.6791 8.9002 11.5 9.07928 11.5 9.3002C11.5 9.52111 11.6791 9.7002 11.9 9.7002H14.0998C14.3207 9.7002 14.4998 9.52111 14.4998 9.3002C14.4998 9.07928 14.3207 8.9002 14.0998 8.9002H11.9Z" fill="black"/>
<path d="M12.25 11.7006C12.25 11.4797 12.4291 11.3006 12.65 11.3006H14.0998C14.3207 11.3006 14.4998 11.4797 14.4998 11.7006C14.4998 11.9215 14.3207 12.1006 14.0998 12.1006H12.65C12.4291 12.1006 12.25 11.9215 12.25 11.7006Z" fill="black"/>
<path d="M12.65 13.7C12.4291 13.7 12.25 13.8791 12.25 14.1C12.25 14.3209 12.4291 14.5 12.65 14.5H14.0998C14.3207 14.5 14.4998 14.3209 14.4998 14.1C14.4998 13.8791 14.3207 13.7 14.0998 13.7H12.65Z" fill="black"/>
</svg>
