<svg width="40" height="40" viewBox="0 0 40 40" fill="none" xmlns="http://www.w3.org/2000/svg">
<path d="M17.4297 7.50781L17.43 11.3156L19.8203 13.6406C19.2829 10.9164 20.0932 8.14297 22.0461 6.18984C23.6281 4.60781 25.7273 3.75781 27.9047 3.75781L27.9926 3.7578L23.4453 8.21875L24.6273 15.2977L31.707 16.4781L36.1789 12.0055C36.1986 14.2125 35.3492 16.3406 33.7383 17.9422C33.0157 18.6746 32.1664 19.2312 31.2578 19.632C31.3945 19.759 31.5604 19.8585 31.6972 19.9952L34.0902 22.3952C34.9105 21.8971 35.6918 21.3014 36.3949 20.5983C39.3629 17.6998 40.5832 13.2358 39.5676 9.15297C39.3331 8.19594 38.6004 7.44438 37.6629 7.18109C36.7058 6.91758 35.6902 7.19104 35.0769 7.88437L30.4879 12.4641L27.959 12.0445L27.5388 9.50539L32.1185 4.93508C32.8118 4.30227 33.0755 3.28664 32.8115 2.34914C32.5576 1.40227 31.7959 0.669453 30.8389 0.435859C26.6889 -0.598516 22.4092 0.592891 19.3936 3.6007C18.5928 4.40148 17.9483 5.29992 17.4115 6.18664L17.4994 6.24522L17.4297 7.50781ZM8.28123 35.4609C7.28513 36.457 5.52732 36.457 4.52185 35.4613C4.0238 34.9633 3.7406 34.3597 3.7406 33.6566C3.74053 32.9438 4.01388 32.28 4.52162 31.8519L15.0234 21.2188L12.375 18.5703L1.87497 29.0547C0.664037 30.2656 0.0702874 31.8766 0.000756114 33.5156C-0.0687751 35.1547 0.665053 36.8352 1.87576 38.0461C3.08669 39.257 4.69763 39.9203 6.33669 39.9203C8.04529 39.9202 9.65701 39.256 10.8672 38.0453L18.75 30.1625C17.9979 28.9227 17.5679 27.5164 17.5289 26.0906L8.28123 35.4609ZM39.1484 30.9062L30 21.7656C28.1929 19.9594 25.4961 19.6055 23.3289 20.6797L14.9297 12.3438V7.49922L4.99998 0L-2.51357e-05 4.92969L7.49998 14.8594L12.3468 14.86L20.6828 23.1881C19.6187 25.3561 19.9626 28.0529 21.7695 29.8592L30.9101 39.0076C32.0429 40.1498 33.8953 40.1498 35.0281 39.0075L39.1492 34.8864C40.2812 33.8828 40.2812 32.0391 39.1484 30.9062Z" fill="#888888"/>
</svg>
