<?xml version="1.0" encoding="UTF-8"?>
<svg width="256px" height="341px" viewBox="0 0 256 341" version="1.1" xmlns="http://www.w3.org/2000/svg" xmlns:xlink="http://www.w3.org/1999/xlink" preserveAspectRatio="xMidYMid">
	<g fill="#000000">
		<path d="M61.0237058,90.9301551 L61.0237058,66.7775515 C61.0237058,29.943902 90.9676079,0 127.801257,0 C164.767402,0 194.711304,29.943902 194.711304,66.7775515 L194.711304,90.8916673 C201.601051,91.8191333 207.430838,98.1789001 207.563333,105.201143 C207.695828,112.223385 212.730643,120.835569 218.692925,124.412938 C224.655206,127.990307 227.305109,136.205006 224.655206,142.697268 C222.005303,149.057035 223.065264,158.99417 226.907623,164.823956 C230.882478,170.521247 229.955012,179.133432 224.920196,183.903257 C219.885381,188.673082 216.705497,198.212732 218.030449,204.969984 C219.3554,211.859732 214.983061,219.27946 208.490799,221.531877 C201.866042,223.784294 195.241284,231.204022 193.651343,237.961275 C192.061401,244.718527 185.039159,249.753342 178.149411,249.223362 C171.259664,248.693381 162.117499,252.668235 157.877654,258.233031 C153.63781,263.797827 145.290616,265.520264 139.195839,262.207886 C133.101063,258.895507 123.163927,258.895507 116.936656,262.207886 C110.841879,265.520264 102.36219,263.797827 98.1223455,258.233031 C93.882501,252.668235 84.7403362,248.693381 77.8505888,249.223362 C70.9608415,249.753342 63.9385989,244.718527 62.3486572,237.961275 C60.7587155,231.204022 54.1339585,223.784294 47.5092014,221.531877 C40.8844443,219.27946 36.6445997,211.727237 37.9695512,204.969984 C39.2945026,198.080237 36.2471143,188.673082 31.0798038,183.903257 C26.0449884,179.133432 25.1175224,170.521247 29.0923767,164.823956 C33.0672309,159.126665 34.127192,149.18953 31.3447941,142.697268 C28.6948912,136.337501 31.3447941,128.122802 37.3070754,124.412938 C43.2693568,120.835569 48.3041722,112.09089 48.4366674,105.201143 C48.5674604,98.3999035 54.2501057,91.986003 61.0237058,90.9301551 Z M161.852509,69.5835525 L161.852509,66.7775515 C161.852509,47.9632413 146.615567,32.7263 127.801257,32.7263 C108.986947,32.7263 93.7500058,47.9632413 93.7500058,66.7775515 L93.7500058,69.5538757 C94.7812946,69.6161244 95.8042335,69.7919818 96.7973941,70.08993 C103.289656,72.0773571 112.961801,69.9574349 118.261607,65.4526 L118.261607,65.4526 C123.561413,60.9477652 132.173597,60.9477652 137.473403,65.4526 C142.773208,69.9574349 152.445354,72.0773571 159.202606,70.08993 C160.068022,69.8303051 160.956049,69.6633833 161.852509,69.5835525 Z M127.801257,96.7214535 C91.2325982,96.7214535 61.5536864,126.400365 61.5536864,162.969024 C61.5536864,199.537684 91.2325982,229.216595 127.801257,229.216595 C164.369916,229.216595 194.048828,199.537684 194.048828,162.969024 C194.048828,126.400365 164.369916,96.7214535 127.801257,96.7214535 Z M132.306092,119.510618 L132.306092,119.510618 L170.597188,119.510618 C170.597188,119.510618 168.212276,135.145045 154.962761,135.145045 L136.015956,135.145045 C124.356384,135.145045 119.851549,137.927443 117.864122,139.252394 C114.551743,141.637307 112.564316,144.81719 111.239365,147.997073 C110.841879,149.322025 109.781918,153.031889 109.251937,156.344267 L107.529501,169.461286 C107.132015,172.376179 106.99952,176.748519 107.397005,178.735946 C108.324471,183.770762 110.974374,186.55316 115.214219,188.143101 C118.394102,189.335558 122.898937,189.733043 127.536267,189.733043 L161.852509,189.733043 C161.852509,189.733043 159.997577,205.36747 145.025626,205.36747 L119.189073,205.36747 C104.482112,205.36747 94.5449767,200.067664 88.7151905,193.575402 C83.8128702,188.010606 81.9579382,180.325888 83.1503945,169.991267 L85.0053265,155.019316 C87.6552293,135.27754 99.1823067,123.617967 120.514024,120.438084 C124.091393,119.908103 128.066248,119.510618 132.306092,119.510618 Z"></path>
		<path d="M44.0637168,334.79646 C44.0637168,335.985841 43.780531,337.061947 43.1575221,337.968142 C42.5345133,338.874336 41.6849558,339.610619 40.5522124,340.120354 C39.419469,340.630088 38.060177,340.913274 36.5309735,340.913274 C35.2283186,340.913274 34.2088496,340.856637 33.3026549,340.630088 C32.4530973,340.460177 31.5469027,340.120354 30.5840708,339.667257 L30.5840708,335.079646 C31.5469027,335.589381 32.6230088,335.985841 33.6424779,336.269027 C34.7185841,336.552212 35.6814159,336.665487 36.5876106,336.665487 C37.380531,336.665487 37.9469027,336.552212 38.2867257,336.269027 C38.6265487,335.985841 38.7964602,335.646018 38.7964602,335.249558 C38.7964602,334.966372 38.739823,334.739823 38.5699115,334.569912 C38.4,334.343363 38.1734513,334.173451 37.8902655,333.946903 C37.5504425,333.720354 36.700885,333.323894 35.3415929,332.700885 C34.0955752,332.134513 33.1327434,331.568142 32.5097345,331.058407 C31.8867257,330.548673 31.4336283,329.925664 31.0938053,329.246018 C30.8106195,328.566372 30.640708,327.716814 30.640708,326.810619 C30.640708,325.054867 31.2637168,323.638938 32.5663717,322.676106 C33.8690265,321.713274 35.6247788,321.20354 37.8902655,321.20354 C39.8725664,321.20354 41.9115044,321.656637 43.9504425,322.562832 L42.3646018,326.584071 C40.5522124,325.734513 39.0230088,325.338053 37.720354,325.338053 C37.040708,325.338053 36.5876106,325.451327 36.2477876,325.677876 C35.9646018,325.904425 35.7946903,326.187611 35.7946903,326.584071 C35.7946903,326.980531 35.9646018,327.320354 36.3610619,327.60354 C36.7575221,327.886726 37.8336283,328.453097 39.5327434,329.246018 C41.1752212,329.982301 42.3079646,330.775221 42.9876106,331.624779 C43.7238938,332.417699 44.0637168,333.493805 44.0637168,334.79646 L44.0637168,334.79646 Z M59.5823009,334.79646 C59.5823009,335.985841 59.299115,337.061947 58.6761062,337.968142 C58.0530973,338.874336 57.2035398,339.610619 56.0707965,340.120354 C54.9380531,340.630088 53.5787611,340.913274 52.0495575,340.913274 C50.8035398,340.913274 49.7274336,340.856637 48.8212389,340.630088 C47.9716814,340.460177 47.0654867,340.120354 46.1026549,339.667257 L46.1026549,335.079646 C47.0654867,335.589381 48.1415929,335.985841 49.1610619,336.269027 C50.2371681,336.552212 51.2,336.665487 52.1061947,336.665487 C52.899115,336.665487 53.4654867,336.552212 53.8053097,336.269027 C54.1451327,335.985841 54.3716814,335.646018 54.3716814,335.249558 C54.3716814,334.966372 54.3150442,334.739823 54.1451327,334.569912 C53.9752212,334.343363 53.7486726,334.173451 53.4654867,333.946903 C53.1256637,333.720354 52.2761062,333.323894 50.9168142,332.700885 C49.6707965,332.134513 48.7079646,331.568142 48.0849558,331.058407 C47.4619469,330.548673 47.0088496,329.925664 46.7256637,329.246018 C46.4424779,328.566372 46.2725664,327.716814 46.2725664,326.810619 C46.2725664,325.054867 46.8955752,323.638938 48.1982301,322.676106 C49.500885,321.713274 51.2566372,321.20354 53.5221239,321.20354 C55.5044248,321.20354 57.5433628,321.656637 59.5823009,322.562832 L57.9964602,326.584071 C56.1840708,325.734513 54.6548673,325.338053 53.3522124,325.338053 C52.6725664,325.338053 52.1628319,325.451327 51.879646,325.677876 C51.5964602,325.904425 51.4265487,326.187611 51.4265487,326.584071 C51.4265487,326.980531 51.5964602,327.320354 51.9929204,327.60354 C52.3893805,327.886726 53.4088496,328.453097 55.1646018,329.246018 C56.8070796,329.982301 57.9964602,330.775221 58.619469,331.624779 C59.2424779,332.417699 59.5823009,333.493805 59.5823009,334.79646 L59.5823009,334.79646 Z M62.5274336,340.630088 L62.5274336,321.430088 L67.6814159,321.430088 L67.6814159,336.438938 L75.0442478,336.438938 L75.0442478,340.630088 L62.5274336,340.630088 Z M86.9946903,322.39292 C84.6159292,322.39292 82.6902655,323.185841 81.3309735,324.715044 C79.9716814,326.244248 79.2353982,328.339823 79.2353982,331.058407 C79.2353982,333.776991 79.9150442,335.929204 81.1610619,337.458407 C82.4637168,338.987611 84.3327434,339.723894 86.7681416,339.723894 C88.3539823,339.723894 89.8831858,339.497345 91.1858407,339.100885 L91.1858407,340.290265 C89.939823,340.743363 88.3539823,340.969912 86.4283186,340.969912 C83.7097345,340.969912 81.6141593,340.120354 80.0849558,338.364602 C78.5557522,336.60885 77.7628319,334.173451 77.7628319,331.058407 C77.7628319,329.132743 78.159292,327.376991 78.8955752,325.904425 C79.6318584,324.431858 80.7079646,323.242478 82.0672566,322.449558 C83.4265487,321.656637 85.0690265,321.260177 86.8814159,321.260177 C88.7504425,321.260177 90.4495575,321.6 91.9221239,322.336283 L91.4123894,323.525664 C89.9964602,322.732743 88.5238938,322.39292 86.9946903,322.39292 Z M105.968142,340.630088 L95.4902655,340.630088 L95.4902655,321.430088 L105.968142,321.430088 L105.968142,322.676106 L96.8495575,322.676106 L96.8495575,329.925664 L105.458407,329.925664 L105.458407,331.171681 L96.8495575,331.171681 L96.8495575,339.384071 L105.968142,339.384071 L105.968142,340.630088 L105.968142,340.630088 Z M111.631858,332.247788 L111.631858,340.573451 L110.329204,340.573451 L110.329204,321.373451 L114.916814,321.373451 C117.295575,321.373451 119.051327,321.826549 120.184071,322.676106 C121.316814,323.582301 121.883186,324.884956 121.883186,326.640708 C121.883186,327.943363 121.543363,329.019469 120.863717,329.869027 C120.184071,330.775221 119.164602,331.39823 117.748673,331.79469 L122.959292,340.516814 L121.373451,340.516814 L116.446018,332.19115 L111.631858,332.19115 L111.631858,332.247788 Z M111.631858,331.115044 L115.313274,331.115044 C116.955752,331.115044 118.20177,330.775221 119.051327,330.038938 C119.957522,329.302655 120.410619,328.226549 120.410619,326.867257 C120.410619,325.39469 119.957522,324.318584 119.107965,323.695575 C118.258407,323.015929 116.785841,322.676106 114.80354,322.676106 L111.631858,322.676106 L111.631858,331.115044 L111.631858,331.115044 Z M131.284956,340.630088 L129.925664,340.630088 L129.925664,322.732743 L123.695575,322.732743 L123.695575,321.486726 L137.515044,321.486726 L137.515044,322.732743 L131.284956,322.732743 L131.284956,340.630088 Z M140.346903,340.630088 L140.346903,321.430088 L141.706195,321.430088 L141.706195,340.630088 L140.346903,340.630088 Z M148.446018,340.630088 L147.143363,340.630088 L147.143363,321.430088 L157.677876,321.430088 L157.677876,322.676106 L148.502655,322.676106 L148.502655,330.831858 L157.168142,330.831858 L157.168142,332.077876 L148.502655,332.077876 L148.502655,340.630088 L148.446018,340.630088 Z M160.623009,340.630088 L160.623009,321.430088 L161.982301,321.430088 L161.982301,340.630088 L160.623009,340.630088 Z M175.575221,322.39292 C173.19646,322.39292 171.270796,323.185841 169.911504,324.715044 C168.552212,326.244248 167.815929,328.339823 167.815929,331.058407 C167.815929,333.776991 168.495575,335.929204 169.79823,337.458407 C171.100885,338.987611 172.969912,339.723894 175.40531,339.723894 C176.99115,339.723894 178.520354,339.497345 179.823009,339.100885 L179.823009,340.290265 C178.576991,340.743363 176.99115,340.969912 175.065487,340.969912 C172.346903,340.969912 170.251327,340.120354 168.722124,338.364602 C167.19292,336.60885 166.4,334.173451 166.4,331.058407 C166.4,329.132743 166.79646,327.376991 167.532743,325.904425 C168.269027,324.431858 169.345133,323.242478 170.704425,322.449558 C172.063717,321.656637 173.706195,321.260177 175.518584,321.260177 C177.387611,321.260177 179.086726,321.6 180.559292,322.336283 L179.99292,323.525664 C178.576991,322.732743 177.104425,322.39292 175.575221,322.39292 Z M193.302655,333.833628 L185.486726,333.833628 L182.824779,340.573451 L181.352212,340.573451 L189.054867,321.316814 L189.904425,321.316814 L197.437168,340.573451 L195.907965,340.573451 L193.302655,333.833628 Z M185.99646,332.644248 L192.849558,332.644248 L190.244248,325.734513 C190.017699,325.168142 189.79115,324.431858 189.451327,323.469027 C189.224779,324.318584 188.941593,325.054867 188.658407,325.734513 L185.99646,332.644248 L185.99646,332.644248 Z M205.19646,340.630088 L203.837168,340.630088 L203.837168,322.732743 L197.60708,322.732743 L197.60708,321.486726 L211.426549,321.486726 L211.426549,322.732743 L205.19646,322.732743 L205.19646,340.630088 Z M224.736283,340.630088 L214.258407,340.630088 L214.258407,321.430088 L224.736283,321.430088 L224.736283,322.676106 L215.561062,322.676106 L215.561062,329.925664 L224.226549,329.925664 L224.226549,331.171681 L215.561062,331.171681 L215.561062,339.384071 L224.736283,339.384071 L224.736283,340.630088 L224.736283,340.630088 Z"></path>
		<path d="M19.2783992,278.028319 L19.2783992,277.971681 L34.2872487,277.971681 C34.2872487,277.971681 33.3244169,284.031858 28.1704346,284.031858 L20.7509655,284.031858 C16.2199921,284.031858 14.4076027,285.107965 13.6713195,285.674336 C12.3686647,286.580531 11.5757443,287.883186 11.0660098,289.072566 C10.8960983,289.525664 10.4996381,290.99823 10.2730894,292.300885 L9.59344342,297.39823 C9.42353191,298.474336 9.42353191,300.173451 9.53680625,300.966372 C9.93326642,302.948673 10.8960983,304.024779 12.5952133,304.647788 C13.841231,305.100885 15.5969832,305.270796 17.4093726,305.270796 L30.7191071,305.270796 C30.7191071,305.270796 30.0394611,311.387611 24.2058328,311.387611 L14.1244169,311.387611 C8.40406288,311.387611 4.55273545,309.292035 2.28724873,306.8 C0.361585009,304.647788 -0.318061009,301.646018 0.135036336,297.624779 L0.871319522,291.79115 C1.94742572,284.145133 6.36512483,279.614159 14.6907885,278.368142 C16.1067178,278.141593 17.6359213,278.028319 19.2783992,278.028319 Z M58.1881337,277.292035 L58.1881337,277.292035 C64.701408,277.348673 69.06247,279.217699 71.5545054,281.99292 C73.6500806,284.315044 74.3863638,287.543363 73.8766293,291.847788 L73.0837089,297.851327 L72.9704346,298.474336 C71.4978682,307.139823 65.4376912,311.840708 53.9969832,311.953982 L52.3545054,311.953982 C45.7845939,311.897345 41.4235319,309.858407 38.9314965,307.083186 C36.8925585,304.817699 36.1562753,301.702655 36.6660098,297.568142 L37.4589301,291.564602 C38.761585,282.276106 44.8783992,277.40531 56.5456558,277.292035 L58.1881337,277.292035 Z M64.2483107,291.847788 L64.2483107,291.847788 C64.6447708,288.902655 64.3049478,286.80708 63.2854788,285.334513 C61.9828239,283.578761 59.6040629,283.295575 57.8483107,283.295575 L56.1491956,283.295575 C53.5438859,283.295575 51.4483107,283.975221 49.9191071,285.447788 C48.3899036,286.976991 47.4270717,289.129204 47.0306116,292.074336 L46.2943284,297.568142 C45.9545054,300.060177 46.1244169,301.929204 46.7474257,303.231858 C47.7102576,304.987611 49.9191071,306.063717 52.9775142,306.063717 L54.7332664,306.063717 C57.7916735,306.063717 60.0005231,304.930973 61.4730894,303.061947 C62.5491956,301.646018 63.1722045,299.776991 63.5120275,297.341593 L64.2483107,291.847788 Z M115.335036,279.897345 L115.335036,279.897345 C116.411143,278.651327 118.280169,278.028319 120.772204,277.971681 L125.019992,277.971681 L121.508488,306.40354 C121.338576,307.762832 120.602293,309.065487 119.582824,309.971681 C118.903178,310.59469 117.713797,311.274336 116.07132,311.274336 L111.25716,311.274336 L113.692558,291.847788 L103.611143,304.59115 C103.327957,304.930973 102.365125,306.00708 101.232381,306.00708 L101.119107,306.00708 C100.043001,306.00708 99.2500806,304.930973 98.9668947,304.477876 L92.3403461,291.847788 L90.5279567,306.460177 C90.3580452,307.819469 89.6783992,309.122124 88.602293,310.028319 C87.922647,310.651327 86.7332664,311.330973 85.0907885,311.330973 L80.1067178,311.330973 L84.1845939,278.028319 L88.26247,278.028319 C90.8677797,278.028319 92.6235319,278.651327 93.4730894,280.010619 L102.478399,294.453097 L115.335036,279.897345 Z M152.26247,277.292035 L152.26247,277.292035 C158.832381,277.348673 163.136806,279.217699 165.628842,281.99292 C167.724417,284.315044 168.4607,287.543363 167.950966,291.847788 L167.158045,297.851327 L167.044771,298.474336 C165.572204,307.139823 159.512027,311.840708 148.07132,311.953982 L146.428842,311.953982 C139.85893,311.897345 135.497868,309.858407 133.005833,307.083186 C130.966895,304.817699 130.230612,301.702655 130.740346,297.568142 L131.533266,291.564602 C132.835921,282.276106 138.952735,277.40531 150.619992,277.292035 L152.26247,277.292035 Z M158.379284,291.847788 L158.379284,291.847788 C158.775744,288.902655 158.435921,286.80708 157.416452,285.334513 C156.113797,283.578761 153.735036,283.295575 151.979284,283.295575 L150.280169,283.295575 C147.674859,283.295575 145.579284,283.975221 144.050081,285.447788 C142.46424,286.976991 141.558045,289.129204 141.161585,292.074336 L140.425302,297.568142 C140.085479,300.060177 140.25539,301.929204 140.878399,303.231858 C141.841231,304.987611 144.050081,306.063717 147.108488,306.063717 L148.86424,306.063717 C151.922647,306.063717 154.131497,304.930973 155.604063,303.061947 C156.680169,301.646018 157.303178,299.776991 157.643001,297.341593 L158.379284,291.847788 Z M192.984594,278.028319 C200.404063,278.028319 205.274859,279.614159 207.936806,282.615929 C209.919107,284.881416 210.712027,287.939823 210.202293,291.961062 C210.202293,291.961062 209.409373,298.644248 209.352735,299.040708 C209.012912,301.19292 208.389904,303.00531 207.540346,304.534513 C205.954505,307.19646 202.782824,311.387611 191.172204,311.387611 L179.731497,311.387611 C175.823532,311.387611 174.011143,309.971681 174.350966,307.479646 L175.596983,298.134513 L176.899638,287.543363 L181.770435,287.543363 C185.281939,287.543363 186.188134,290.545133 185.961585,292.414159 L184.375744,305.270796 L189.982824,305.270796 C194.230612,305.270796 199.044771,304.251327 199.894328,297.568142 L200.573974,292.414159 C201.480169,285.957522 198.365125,284.031858 192.588134,284.031858 L187.037691,284.031858 L182.676629,284.031858 C178.938576,284.031858 178.202293,281.256637 178.145656,279.047788 L178.145656,278.028319 L192.984594,278.028319 Z M253.019992,281.99292 L253.019992,281.99292 C255.05893,284.315044 255.795213,287.543363 255.342116,291.847788 L254.549196,297.851327 L254.435921,298.474336 C252.963355,307.139823 246.903178,311.840708 235.46247,311.953982 L233.819992,311.953982 C227.250081,311.897345 222.889019,309.858407 220.396983,307.083186 C218.358045,304.817699 217.621762,301.702655 218.131497,297.568142 L218.924417,291.564602 C220.227072,282.276106 226.343886,277.40531 238.011143,277.292035 L239.65362,277.292035 C246.166895,277.348673 250.527957,279.217699 253.019992,281.99292 Z M245.713797,291.847788 L245.713797,291.847788 C246.110258,288.902655 245.770435,286.80708 244.694328,285.334513 C243.391674,283.578761 241.012912,283.295575 239.25716,283.295575 L237.558045,283.295575 C234.952735,283.295575 232.800523,283.975221 231.327957,285.447788 C229.798753,286.976991 228.835921,289.129204 228.439461,292.074336 L227.703178,297.568142 C227.363355,300.060177 227.533266,301.929204 228.156275,303.231858 C229.119107,304.987611 231.327957,306.063717 234.386364,306.063717 L236.198753,306.063717 C239.25716,306.063717 241.46601,304.930973 242.938576,303.061947 C244.014682,301.646018 244.637691,299.776991 244.977514,297.341593 L245.713797,291.847788 Z"></path>
	</g>
</svg>
