<svg width="20" height="20" viewBox="0 0 20 20" fill="none" xmlns="http://www.w3.org/2000/svg">
<path fill-rule="evenodd" clip-rule="evenodd" d="M14.5 5H5.5C5.22386 5 5 5.22386 5 5.5V14.5C5 14.7761 5.22386 15 5.5 15H14.5C14.7761 15 15 14.7761 15 14.5V5.5C15 5.22386 14.7761 5 14.5 5ZM5.5 4C4.67157 4 4 4.67157 4 5.5V14.5C4 15.3284 4.67157 16 5.5 16H14.5C15.3284 16 16 15.3284 16 14.5V5.5C16 4.67157 15.3284 4 14.5 4H5.5Z" fill="#17A8E3"/>
<path d="M7.48438 7C7.66553 7 7.8125 7.15505 7.8125 7.34615V8.03846C7.8125 8.23029 7.66553 8.38462 7.48438 8.38462V9.65385H8.25C8.25 9.46202 8.39629 9.30769 8.57812 9.30769H9.23438C9.41621 9.30769 9.5625 9.46202 9.5625 9.65385V10.3462C9.5625 10.538 9.41621 10.6923 9.23438 10.6923H8.57812C8.39629 10.6923 8.25 10.538 8.25 10.3462H7.48438V11.8462C7.48438 11.9096 7.53332 11.9615 7.59375 11.9615H8.25C8.25 11.7697 8.39629 11.6154 8.57812 11.6154H9.23438C9.41621 11.6154 9.5625 11.7697 9.5625 11.9615V12.6538C9.5625 12.8457 9.41621 13 9.23438 13H8.57812C8.39629 13 8.25 12.8457 8.25 12.6538H7.59375C7.17088 12.6538 6.82812 12.2918 6.82812 11.8462V8.38462C6.64697 8.38462 6.5 8.23029 6.5 8.03846V7.34615C6.5 7.15505 6.64697 7 6.82812 7H7.48438ZM8.6875 7.69231C8.6875 7.43745 8.88301 7.23077 9.125 7.23077H13.0625C13.3045 7.23077 13.5 7.43745 13.5 7.69231C13.5 7.9476 13.3045 8.15385 13.0625 8.15385H9.125C8.88301 8.15385 8.6875 7.9476 8.6875 7.69231ZM10.4375 10C10.4375 9.74471 10.633 9.53846 10.875 9.53846H13.0625C13.3045 9.53846 13.5 9.74471 13.5 10C13.5 10.2553 13.3045 10.4615 13.0625 10.4615H10.875C10.633 10.4615 10.4375 10.2553 10.4375 10ZM10.4375 12.3077C10.4375 12.0524 10.633 11.8462 10.875 11.8462H13.0625C13.3045 11.8462 13.5 12.0524 13.5 12.3077C13.5 12.563 13.3045 12.7692 13.0625 12.7692H10.875C10.633 12.7692 10.4375 12.563 10.4375 12.3077Z" fill="#17A8E3" stroke="#17A8E3" stroke-width="0.3"/>
</svg>
